<?xml version="1.0" encoding="UTF-8" standalone="no"?>
<svg
   xmlns:dc="http://purl.org/dc/elements/1.1/"
   xmlns:cc="http://creativecommons.org/ns#"
   xmlns:rdf="http://www.w3.org/1999/02/22-rdf-syntax-ns#"
   xmlns:svg="http://www.w3.org/2000/svg"
   xmlns="http://www.w3.org/2000/svg"
   xmlns:sodipodi="http://sodipodi.sourceforge.net/DTD/sodipodi-0.dtd"
   xmlns:inkscape="http://www.inkscape.org/namespaces/inkscape"
   version="1"
   width="921"
   height="320"
   id="svg2"
   inkscape:version="0.91 r13725"
   sodipodi:docname="matrix_factorization.svg">
  <metadata
     id="metadata504">
    <rdf:RDF>
      <cc:Work
         rdf:about="">
        <dc:format>image/svg+xml</dc:format>
        <dc:type
           rdf:resource="http://purl.org/dc/dcmitype/StillImage" />
      </cc:Work>
    </rdf:RDF>
  </metadata>
  <defs
     id="defs502" />
  <sodipodi:namedview
     pagecolor="#ffffff"
     bordercolor="#666666"
     borderopacity="1"
     objecttolerance="10"
     gridtolerance="10"
     guidetolerance="10"
     inkscape:pageopacity="0"
     inkscape:pageshadow="2"
     inkscape:window-width="1372"
     inkscape:window-height="855"
     id="namedview500"
     showgrid="false"
     inkscape:zoom="0.82844734"
     inkscape:cx="460.5"
     inkscape:cy="160"
     inkscape:window-x="0"
     inkscape:window-y="1"
     inkscape:window-maximized="1"
     inkscape:current-layer="g4" />
  <g
     transform="matrix(1.25 0 0 -1.25 0 320)"
     id="g4">
    <path
       d="M57 5h259v196H57V5z"
       fill="#fff"
       id="path6" />
    <path
       d="M57 201h259V5H57v196z"
       fill="none"
       stroke="#000"
       stroke-width="3"
       stroke-miterlimit="8"
       id="path8" />
    <text
       y="-95"
       x="179"
       transform="scale(1 -1)"
       style="-inkscape-font-specification:'Sans, Normal';text-align:start;line-height:125%"
       font-size="16"
       font-family="Sans"
       writing-mode="lr"
       id="text10">
      <tspan
         x="179"
         y="-95"
         style="-inkscape-font-specification:'Sans, Normal';text-align:start;line-height:125%"
         id="tspan12">R</tspan>
    </text>
    <text
       y="-92"
       x="301"
       transform="skewX(19) scale(1 -1)"
       style="-inkscape-font-specification:'Sans, Normal';text-align:start;line-height:125%"
       font-size="16"
       font-family="Sans"
       writing-mode="lr"
       id="text14">
      <tspan
         x="301"
         y="-92"
         style="-inkscape-font-specification:'Sans, Normal';text-align:start;line-height:125%"
         id="tspan16">=</tspan>
    </text>
    <path
       d="M68 185h5v6h-5v-6z"
       fill="#5b9bd5"
       id="path18" />
    <path
       d="M68 191h5v-6h-5v6z"
       fill="none"
       stroke="#41719c"
       stroke-miterlimit="8"
       id="path20" />
    <path
       d="M81 153h5v6h-5v-6z"
       fill="#5b9bd5"
       id="path22" />
    <path
       d="M81 159h5v-6h-5v6z"
       fill="none"
       stroke="#41719c"
       stroke-miterlimit="8"
       id="path24" />
    <path
       d="M67 144h5v5h-5v-5z"
       fill="#5b9bd5"
       id="path26" />
    <path
       d="M67 149h5v-5h-5v5z"
       fill="none"
       stroke="#41719c"
       stroke-miterlimit="8"
       id="path28" />
    <path
       d="M97 178h5v5h-5v-5z"
       fill="#5b9bd5"
       id="path30" />
    <path
       d="M97 183h5v-5h-5v5z"
       fill="none"
       stroke="#41719c"
       stroke-miterlimit="8"
       id="path32" />
    <path
       d="M107 166h5v5h-5v-5z"
       fill="#5b9bd5"
       id="path34" />
    <path
       d="M107 171h5v-5h-5v5z"
       fill="none"
       stroke="#41719c"
       stroke-miterlimit="8"
       id="path36" />
    <path
       d="M91 141h4v6h-4v-6z"
       fill="#5b9bd5"
       id="path38" />
    <path
       d="M91 147h4v-6h-4v6z"
       fill="none"
       stroke="#41719c"
       stroke-miterlimit="8"
       id="path40" />
    <path
       d="M102 156h5v6h-5v-6z"
       fill="#5b9bd5"
       id="path42" />
    <path
       d="M102 162h5v-6h-5v6z"
       fill="none"
       stroke="#41719c"
       stroke-miterlimit="8"
       id="path44" />
    <path
       d="M115 125h5v6h-5v-6z"
       fill="#5b9bd5"
       id="path46" />
    <path
       d="M115 131h5v-6h-5v6z"
       fill="none"
       stroke="#41719c"
       stroke-miterlimit="8"
       id="path48" />
    <path
       d="M102 115h4v5h-4v-5z"
       fill="#5b9bd5"
       id="path50" />
    <path
       d="M102 120h4v-5h-4v5z"
       fill="none"
       stroke="#41719c"
       stroke-miterlimit="8"
       id="path52" />
    <path
       d="M132 149h4v5h-4v-5z"
       fill="#5b9bd5"
       id="path54" />
    <path
       d="M132 154h4v-5h-4v5z"
       fill="none"
       stroke="#41719c"
       stroke-miterlimit="8"
       id="path56" />
    <path
       d="M142 137h4v5h-4v-5z"
       fill="#5b9bd5"
       id="path58" />
    <path
       d="M142 142h4v-5h-4v5z"
       fill="none"
       stroke="#41719c"
       stroke-miterlimit="8"
       id="path60" />
    <path
       d="M125 113h5v6h-5v-6z"
       fill="#5b9bd5"
       id="path62" />
    <path
       d="M125 119h5v-6h-5v6z"
       fill="none"
       stroke="#41719c"
       stroke-miterlimit="8"
       id="path64" />
    <path
       d="M74 117h5v6h-5v-6z"
       fill="#5b9bd5"
       id="path66" />
    <path
       d="M74 123h5v-6h-5v6z"
       fill="none"
       stroke="#41719c"
       stroke-miterlimit="8"
       id="path68" />
    <path
       d="M84 105h5v6h-5v-6z"
       fill="#5b9bd5"
       id="path70" />
    <path
       d="M84 111h5v-6h-5v6z"
       fill="none"
       stroke="#41719c"
       stroke-miterlimit="8"
       id="path72" />
    <path
       d="M96 120h4v6h-4v-6z"
       fill="#5b9bd5"
       id="path74" />
    <path
       d="M96 126h4v-6h-4v6z"
       fill="none"
       stroke="#41719c"
       stroke-miterlimit="8"
       id="path76" />
    <path
       d="M109 89h4v6h-4v-6z"
       fill="#5b9bd5"
       id="path78" />
    <path
       d="M109 95h4v-6h-4v6z"
       fill="none"
       stroke="#41719c"
       stroke-miterlimit="8"
       id="path80" />
    <path
       d="M69 22h4v6h-4v-6z"
       fill="#5b9bd5"
       id="path82" />
    <path
       d="M69 28h4v-6h-4v6z"
       fill="none"
       stroke="#41719c"
       stroke-miterlimit="8"
       id="path84" />
    <path
       d="M125 113h5v5h-5v-5z"
       fill="#5b9bd5"
       id="path86" />
    <path
       d="M125 118h5v-5h-5v5z"
       fill="none"
       stroke="#41719c"
       stroke-miterlimit="8"
       id="path88" />
    <path
       d="M135 101h5v5h-5v-5z"
       fill="#5b9bd5"
       id="path90" />
    <path
       d="M135 106h5v-5h-5v5z"
       fill="none"
       stroke="#41719c"
       stroke-miterlimit="8"
       id="path92" />
    <path
       d="M119 77h4v6h-4v-6z"
       fill="#5b9bd5"
       id="path94" />
    <path
       d="M119 83h4v-6h-4v6z"
       fill="none"
       stroke="#41719c"
       stroke-miterlimit="8"
       id="path96" />
    <path
       d="M68 81h4v6h-4v-6z"
       fill="#5b9bd5"
       id="path98" />
    <path
       d="M68 87h4v-6h-4v6z"
       fill="none"
       stroke="#41719c"
       stroke-miterlimit="8"
       id="path100" />
    <path
       d="M78 69h4v6h-4v-6z"
       fill="#5b9bd5"
       id="path102" />
    <path
       d="M78 75h4v-6h-4v6z"
       fill="none"
       stroke="#41719c"
       stroke-miterlimit="8"
       id="path104" />
    <path
       d="M89 84h5v6h-5v-6z"
       fill="#5b9bd5"
       id="path106" />
    <path
       d="M89 90h5v-6h-5v6z"
       fill="none"
       stroke="#41719c"
       stroke-miterlimit="8"
       id="path108" />
    <path
       d="M102 53h5v6h-5v-6z"
       fill="#5b9bd5"
       id="path110" />
    <path
       d="M102 59h5v-6h-5v6z"
       fill="none"
       stroke="#41719c"
       stroke-miterlimit="8"
       id="path112" />
    <path
       d="M88 43h5v5h-5v-5z"
       fill="#5b9bd5"
       id="path114" />
    <path
       d="M88 48h5v-5h-5v5z"
       fill="none"
       stroke="#41719c"
       stroke-miterlimit="8"
       id="path116" />
    <path
       d="M118 77h5v5h-5v-5z"
       fill="#5b9bd5"
       id="path118" />
    <path
       d="M118 82h5v-5h-5v5z"
       fill="none"
       stroke="#41719c"
       stroke-miterlimit="8"
       id="path120" />
    <path
       d="M128 65h5v5h-5v-5z"
       fill="#5b9bd5"
       id="path122" />
    <path
       d="M128 70h5v-5h-5v5z"
       fill="none"
       stroke="#41719c"
       stroke-miterlimit="8"
       id="path124" />
    <path
       d="M112 41h5v6h-5v-6z"
       fill="#5b9bd5"
       id="path126" />
    <path
       d="M112 47h5v-6h-5v6z"
       fill="none"
       stroke="#41719c"
       stroke-miterlimit="8"
       id="path128" />
    <path
       d="M134 116h5v5h-5v-5z"
       fill="#5b9bd5"
       id="path130" />
    <path
       d="M134 121h5v-5h-5v5z"
       fill="none"
       stroke="#41719c"
       stroke-miterlimit="8"
       id="path132" />
    <path
       d="M158 113h4v6h-4v-6z"
       fill="#5b9bd5"
       id="path134" />
    <path
       d="M158 119h4v-6h-4v6z"
       fill="none"
       stroke="#41719c"
       stroke-miterlimit="8"
       id="path136" />
    <path
       d="M182 80h5v5h-5v-5z"
       fill="#5b9bd5"
       id="path138" />
    <path
       d="M182 85h5v-5h-5v5z"
       fill="none"
       stroke="#41719c"
       stroke-miterlimit="8"
       id="path140" />
    <path
       d="M169 86h4v6h-4v-6z"
       fill="#5b9bd5"
       id="path142" />
    <path
       d="M169 92h4v-6h-4v6z"
       fill="none"
       stroke="#41719c"
       stroke-miterlimit="8"
       id="path144" />
    <path
       d="M199 121h4v5h-4v-5z"
       fill="#5b9bd5"
       id="path146" />
    <path
       d="M199 126h4v-5h-4v5z"
       fill="none"
       stroke="#41719c"
       stroke-miterlimit="8"
       id="path148" />
    <path
       d="M209 109h4v5h-4v-5z"
       fill="#5b9bd5"
       id="path150" />
    <path
       d="M209 114h4v-5h-4v5z"
       fill="none"
       stroke="#41719c"
       stroke-miterlimit="8"
       id="path152" />
    <path
       d="M192 85h5v6h-5v-6z"
       fill="#5b9bd5"
       id="path154" />
    <path
       d="M192 91h5v-6h-5v6z"
       fill="none"
       stroke="#41719c"
       stroke-miterlimit="8"
       id="path156" />
    <path
       d="M134 82h5v6h-5v-6z"
       fill="#5b9bd5"
       id="path158" />
    <path
       d="M134 88h5v-6h-5v6z"
       fill="none"
       stroke="#41719c"
       stroke-miterlimit="8"
       id="path160" />
    <path
       d="M151 77h5v6h-5v-6z"
       fill="#5b9bd5"
       id="path162" />
    <path
       d="M151 83h5v-6h-5v6z"
       fill="none"
       stroke="#41719c"
       stroke-miterlimit="8"
       id="path164" />
    <path
       d="M163 92h4v6h-4v-6z"
       fill="#5b9bd5"
       id="path166" />
    <path
       d="M163 98h4v-6h-4v6z"
       fill="none"
       stroke="#41719c"
       stroke-miterlimit="8"
       id="path168" />
    <path
       d="M176 61h4v6h-4v-6z"
       fill="#5b9bd5"
       id="path170" />
    <path
       d="M176 67h4v-6h-4v6z"
       fill="none"
       stroke="#41719c"
       stroke-miterlimit="8"
       id="path172" />
    <path
       d="M162 50h5v6h-5v-6z"
       fill="#5b9bd5"
       id="path174" />
    <path
       d="M162 56h5v-6h-5v6z"
       fill="none"
       stroke="#41719c"
       stroke-miterlimit="8"
       id="path176" />
    <path
       d="M192 85h5v5h-5v-5z"
       fill="#5b9bd5"
       id="path178" />
    <path
       d="M192 90h5v-5h-5v5z"
       fill="none"
       stroke="#41719c"
       stroke-miterlimit="8"
       id="path180" />
    <path
       d="M202 73h5v5h-5v-5z"
       fill="#5b9bd5"
       id="path182" />
    <path
       d="M202 78h5v-5h-5v5z"
       fill="none"
       stroke="#41719c"
       stroke-miterlimit="8"
       id="path184" />
    <path
       d="M186 49h4v6h-4v-6z"
       fill="#5b9bd5"
       id="path186" />
    <path
       d="M186 55h4v-6h-4v6z"
       fill="none"
       stroke="#41719c"
       stroke-miterlimit="8"
       id="path188" />
    <path
       d="M135 53h4v6h-4v-6z"
       fill="#5b9bd5"
       id="path190" />
    <path
       d="M135 59h4v-6h-4v6z"
       fill="none"
       stroke="#41719c"
       stroke-miterlimit="8"
       id="path192" />
    <path
       d="M145 41h4v6h-4v-6z"
       fill="#5b9bd5"
       id="path194" />
    <path
       d="M145 47h4v-6h-4v6z"
       fill="none"
       stroke="#41719c"
       stroke-miterlimit="8"
       id="path196" />
    <path
       d="M156 56h5v6h-5v-6z"
       fill="#5b9bd5"
       id="path198" />
    <path
       d="M156 62h5v-6h-5v6z"
       fill="none"
       stroke="#41719c"
       stroke-miterlimit="8"
       id="path200" />
    <path
       d="M169 25h5v6h-5v-6z"
       fill="#5b9bd5"
       id="path202" />
    <path
       d="M169 31h5v-6h-5v6z"
       fill="none"
       stroke="#41719c"
       stroke-miterlimit="8"
       id="path204" />
    <path
       d="M155 14h5v6h-5v-6z"
       fill="#5b9bd5"
       id="path206" />
    <path
       d="M155 20h5v-6h-5v6z"
       fill="none"
       stroke="#41719c"
       stroke-miterlimit="8"
       id="path208" />
    <path
       d="M185 49h5v5h-5v-5z"
       fill="#5b9bd5"
       id="path210" />
    <path
       d="M185 54h5v-5h-5v5z"
       fill="none"
       stroke="#41719c"
       stroke-miterlimit="8"
       id="path212" />
    <path
       d="M195 37h5v5h-5v-5z"
       fill="#5b9bd5"
       id="path214" />
    <path
       d="M195 42h5v-5h-5v5z"
       fill="none"
       stroke="#41719c"
       stroke-miterlimit="8"
       id="path216" />
    <path
       d="M224 174h5v6h-5v-6z"
       fill="#5b9bd5"
       id="path218" />
    <path
       d="M224 180h5v-6h-5v6z"
       fill="none"
       stroke="#41719c"
       stroke-miterlimit="8"
       id="path220" />
    <path
       d="M237 142h5v6h-5v-6z"
       fill="#5b9bd5"
       id="path222" />
    <path
       d="M237 148h5v-6h-5v6z"
       fill="none"
       stroke="#41719c"
       stroke-miterlimit="8"
       id="path224" />
    <path
       d="M223 133h5v5h-5v-5z"
       fill="#5b9bd5"
       id="path226" />
    <path
       d="M223 138h5v-5h-5v5z"
       fill="none"
       stroke="#41719c"
       stroke-miterlimit="8"
       id="path228" />
    <path
       d="M254 167h4v5h-4v-5z"
       fill="#5b9bd5"
       id="path230" />
    <path
       d="M254 172h4v-5h-4v5z"
       fill="none"
       stroke="#41719c"
       stroke-miterlimit="8"
       id="path232" />
    <path
       d="M263 155h5v5h-5v-5z"
       fill="#5b9bd5"
       id="path234" />
    <path
       d="M263 160h5v-5h-5v5z"
       fill="none"
       stroke="#41719c"
       stroke-miterlimit="8"
       id="path236" />
    <path
       d="M247 130h5v6h-5v-6z"
       fill="#5b9bd5"
       id="path238" />
    <path
       d="M247 136h5v-6h-5v6z"
       fill="none"
       stroke="#41719c"
       stroke-miterlimit="8"
       id="path240" />
    <path
       d="M258 145h5v6h-5v-6z"
       fill="#5b9bd5"
       id="path242" />
    <path
       d="M258 151h5v-6h-5v6z"
       fill="none"
       stroke="#41719c"
       stroke-miterlimit="8"
       id="path244" />
    <path
       d="M272 114h4v6h-4v-6z"
       fill="#5b9bd5"
       id="path246" />
    <path
       d="M272 120h4v-6h-4v6z"
       fill="none"
       stroke="#41719c"
       stroke-miterlimit="8"
       id="path248" />
    <path
       d="M258 103h4v6h-4v-6z"
       fill="#5b9bd5"
       id="path250" />
    <path
       d="M258 109h4v-6h-4v6z"
       fill="none"
       stroke="#41719c"
       stroke-miterlimit="8"
       id="path252" />
    <path
       d="M288 138h5v5h-5v-5z"
       fill="#5b9bd5"
       id="path254" />
    <path
       d="M288 143h5v-5h-5v5z"
       fill="none"
       stroke="#41719c"
       stroke-miterlimit="8"
       id="path256" />
    <path
       d="M298 126h4v5h-4v-5z"
       fill="#5b9bd5"
       id="path258" />
    <path
       d="M298 131h4v-5h-4v5z"
       fill="none"
       stroke="#41719c"
       stroke-miterlimit="8"
       id="path260" />
    <path
       d="M281 102h5v6h-5v-6z"
       fill="#5b9bd5"
       id="path262" />
    <path
       d="M281 108h5v-6h-5v6z"
       fill="none"
       stroke="#41719c"
       stroke-miterlimit="8"
       id="path264" />
    <path
       d="M231 106h4v6h-4v-6z"
       fill="#5b9bd5"
       id="path266" />
    <path
       d="M231 112h4v-6h-4v6z"
       fill="none"
       stroke="#41719c"
       stroke-miterlimit="8"
       id="path268" />
    <path
       d="M240 94h5v6h-5v-6z"
       fill="#5b9bd5"
       id="path270" />
    <path
       d="M240 100h5v-6h-5v6z"
       fill="none"
       stroke="#41719c"
       stroke-miterlimit="8"
       id="path272" />
    <path
       d="M252 109h4v6h-4v-6z"
       fill="#5b9bd5"
       id="path274" />
    <path
       d="M252 115h4v-6h-4v6z"
       fill="none"
       stroke="#41719c"
       stroke-miterlimit="8"
       id="path276" />
    <path
       d="M265 78h5v6h-5v-6z"
       fill="#5b9bd5"
       id="path278" />
    <path
       d="M265 84h5v-6h-5v6z"
       fill="none"
       stroke="#41719c"
       stroke-miterlimit="8"
       id="path280" />
    <path
       d="M251 67h5v6h-5v-6z"
       fill="#5b9bd5"
       id="path282" />
    <path
       d="M251 73h5v-6h-5v6z"
       fill="none"
       stroke="#41719c"
       stroke-miterlimit="8"
       id="path284" />
    <path
       d="M281 102h5v5h-5v-5z"
       fill="#5b9bd5"
       id="path286" />
    <path
       d="M281 107h5v-5h-5v5z"
       fill="none"
       stroke="#41719c"
       stroke-miterlimit="8"
       id="path288" />
    <path
       d="M291 90h5v5h-5v-5z"
       fill="#5b9bd5"
       id="path290" />
    <path
       d="M291 95h5v-5h-5v5z"
       fill="none"
       stroke="#41719c"
       stroke-miterlimit="8"
       id="path292" />
    <path
       d="M275 66h4v6h-4v-6z"
       fill="#5b9bd5"
       id="path294" />
    <path
       d="M275 72h4v-6h-4v6z"
       fill="none"
       stroke="#41719c"
       stroke-miterlimit="8"
       id="path296" />
    <path
       d="M224 70h4v6h-4v-6z"
       fill="#5b9bd5"
       id="path298" />
    <path
       d="M224 76h4v-6h-4v6z"
       fill="none"
       stroke="#41719c"
       stroke-miterlimit="8"
       id="path300" />
    <path
       d="M234 58h4v6h-4v-6z"
       fill="#5b9bd5"
       id="path302" />
    <path
       d="M234 64h4v-6h-4v6z"
       fill="none"
       stroke="#41719c"
       stroke-miterlimit="8"
       id="path304" />
    <path
       d="M245 73h5v6h-5v-6z"
       fill="#5b9bd5"
       id="path306" />
    <path
       d="M245 79h5v-6h-5v6z"
       fill="none"
       stroke="#41719c"
       stroke-miterlimit="8"
       id="path308" />
    <path
       d="M258 42h5v6h-5v-6z"
       fill="#5b9bd5"
       id="path310" />
    <path
       d="M258 48h5v-6h-5v6z"
       fill="none"
       stroke="#41719c"
       stroke-miterlimit="8"
       id="path312" />
    <path
       d="M244 31h5v6h-5v-6z"
       fill="#5b9bd5"
       id="path314" />
    <path
       d="M244 37h5v-6h-5v6z"
       fill="none"
       stroke="#41719c"
       stroke-miterlimit="8"
       id="path316" />
    <path
       d="M275 66h4v5h-4v-5z"
       fill="#5b9bd5"
       id="path318" />
    <path
       d="M275 71h4v-5h-4v5z"
       fill="none"
       stroke="#41719c"
       stroke-miterlimit="8"
       id="path320" />
    <path
       d="M284 54h5v5h-5v-5z"
       fill="#5b9bd5"
       id="path322" />
    <path
       d="M284 59h5v-5h-5v5z"
       fill="none"
       stroke="#41719c"
       stroke-miterlimit="8"
       id="path324" />
    <path
       d="M268 30h5v6h-5v-6z"
       fill="#5b9bd5"
       id="path326" />
    <path
       d="M268 36h5v-6h-5v6z"
       fill="none"
       stroke="#41719c"
       stroke-miterlimit="8"
       id="path328" />
    <path
       d="M290 104h5v6h-5v-6z"
       fill="#5b9bd5"
       id="path330" />
    <path
       d="M290 110h5v-6h-5v6z"
       fill="none"
       stroke="#41719c"
       stroke-miterlimit="8"
       id="path332" />
    <path
       d="M291 71h4v6h-4v-6z"
       fill="#5b9bd5"
       id="path334" />
    <path
       d="M291 77h4v-6h-4v6z"
       fill="none"
       stroke="#41719c"
       stroke-miterlimit="8"
       id="path336" />
    <path
       d="M291 42h5v6h-5v-6z"
       fill="#5b9bd5"
       id="path338" />
    <path
       d="M291 48h5v-6h-5v6z"
       fill="none"
       stroke="#41719c"
       stroke-miterlimit="8"
       id="path340" />
    <path
       d="M157 181h5v6h-5v-6z"
       fill="#5b9bd5"
       id="path342" />
    <path
       d="M157 187h5v-6h-5v6z"
       fill="none"
       stroke="#41719c"
       stroke-miterlimit="8"
       id="path344" />
    <path
       d="M181 180h4v6h-4v-6z"
       fill="#5b9bd5"
       id="path346" />
    <path
       d="M181 186h4v-6h-4v6z"
       fill="none"
       stroke="#41719c"
       stroke-miterlimit="8"
       id="path348" />
    <path
       d="M130 184h5v6h-5v-6z"
       fill="#5b9bd5"
       id="path350" />
    <path
       d="M130 190h5v-6h-5v6z"
       fill="none"
       stroke="#41719c"
       stroke-miterlimit="8"
       id="path352" />
    <path
       d="M140 172h4v6h-4v-6z"
       fill="#5b9bd5"
       id="path354" />
    <path
       d="M140 178h4v-6h-4v6z"
       fill="none"
       stroke="#41719c"
       stroke-miterlimit="8"
       id="path356" />
    <path
       d="M151 187h5v6h-5v-6z"
       fill="#5b9bd5"
       id="path358" />
    <path
       d="M151 193h5v-6h-5v6z"
       fill="none"
       stroke="#41719c"
       stroke-miterlimit="8"
       id="path360" />
    <path
       d="M164 156h5v6h-5v-6z"
       fill="#5b9bd5"
       id="path362" />
    <path
       d="M164 162h5v-6h-5v6z"
       fill="none"
       stroke="#41719c"
       stroke-miterlimit="8"
       id="path364" />
    <path
       d="M150 145h5v6h-5v-6z"
       fill="#5b9bd5"
       id="path366" />
    <path
       d="M150 151h5v-6h-5v6z"
       fill="none"
       stroke="#41719c"
       stroke-miterlimit="8"
       id="path368" />
    <path
       d="M181 179h4v6h-4v-6z"
       fill="#5b9bd5"
       id="path370" />
    <path
       d="M181 185h4v-6h-4v6z"
       fill="none"
       stroke="#41719c"
       stroke-miterlimit="8"
       id="path372" />
    <path
       d="M191 167h4v6h-4v-6z"
       fill="#5b9bd5"
       id="path374" />
    <path
       d="M191 173h4v-6h-4v6z"
       fill="none"
       stroke="#41719c"
       stroke-miterlimit="8"
       id="path376" />
    <path
       d="M174 144h5v6h-5v-6z"
       fill="#5b9bd5"
       id="path378" />
    <path
       d="M174 150h5v-6h-5v6z"
       fill="none"
       stroke="#41719c"
       stroke-miterlimit="8"
       id="path380" />
    <path
       d="M197 185h4v6h-4v-6z"
       fill="#5b9bd5"
       id="path382" />
    <path
       d="M197 191h4v-6h-4v6z"
       fill="none"
       stroke="#41719c"
       stroke-miterlimit="8"
       id="path384" />
    <path
       d="M197 156h5v6h-5v-6z"
       fill="#5b9bd5"
       id="path386" />
    <path
       d="M197 162h5v-6h-5v6z"
       fill="none"
       stroke="#41719c"
       stroke-miterlimit="8"
       id="path388" />
    <path
       d="M107 30h4v6h-4v-6z"
       fill="#5b9bd5"
       id="path390" />
    <path
       d="M107 36h4v-6h-4v6z"
       fill="none"
       stroke="#41719c"
       stroke-miterlimit="8"
       id="path392" />
    <path
       d="M93 20h4v5h-4v-5z"
       fill="#5b9bd5"
       id="path394" />
    <path
       d="M93 25h4v-5h-4v5z"
       fill="none"
       stroke="#41719c"
       stroke-miterlimit="8"
       id="path396" />
    <path
       d="M123 54h5v5h-5v-5z"
       fill="#5b9bd5"
       id="path398" />
    <path
       d="M123 59h5v-5h-5v5z"
       fill="none"
       stroke="#41719c"
       stroke-miterlimit="8"
       id="path400" />
    <path
       d="M267 177h5v6h-5v-6z"
       fill="#5b9bd5"
       id="path402" />
    <path
       d="M267 183h5v-6h-5v6z"
       fill="none"
       stroke="#41719c"
       stroke-miterlimit="8"
       id="path404" />
    <path
       d="M280 146h5v6h-5v-6z"
       fill="#5b9bd5"
       id="path406" />
    <path
       d="M280 152h5v-6h-5v6z"
       fill="none"
       stroke="#41719c"
       stroke-miterlimit="8"
       id="path408" />
    <path
       d="M216 26h5v6h-5v-6z"
       fill="#5b9bd5"
       id="path410" />
    <path
       d="M216 32h5v-6h-5v6z"
       fill="none"
       stroke="#41719c"
       stroke-miterlimit="8"
       id="path412" />
    <path
       d="M297 170h4v6h-4v-6z"
       fill="#5b9bd5"
       id="path414" />
    <path
       d="M297 176h4v-6h-4v6z"
       fill="none"
       stroke="#41719c"
       stroke-miterlimit="8"
       id="path416" />
    <path
       d="M192 14h5v6h-5v-6z"
       fill="#5b9bd5"
       id="path418" />
    <path
       d="M192 20h5v-6h-5v6z"
       fill="none"
       stroke="#41719c"
       stroke-miterlimit="8"
       id="path420" />
    <path
       d="M368 5h57v196h-57V5z"
       fill="#fff"
       id="path422" />
    <path
       d="M368 201h57V5h-57v196z"
       stroke-miterlimit="8"
       id="path424"
       stroke-width="3"
       stroke="#000"
       fill="none" />
    <text
       y="-95"
       x="387"
       transform="scale(1 -1)"
       style="-inkscape-font-specification:'Sans, Normal';text-align:start;line-height:125%"
       font-size="16"
       font-family="Sans"
       writing-mode="lr"
       id="text426">
      <tspan
         x="387"
         y="-95"
         style="-inkscape-font-specification:'Sans, Normal';text-align:start;line-height:125%"
         id="tspan428">U</tspan>
    </text>
    <path
       d="M461 146h224v57H461v-57z"
       fill="#fff"
       id="path430" />
    <path
       d="M461 203h224v-57H461v57z"
       fill="none"
       stroke="#000"
       stroke-width="3"
       stroke-miterlimit="8"
       id="path432" />
    <text
       y="-166"
       x="565"
       transform="scale(1 -1)"
       style="-inkscape-font-specification:'Sans, Normal';text-align:start;line-height:125%"
       font-size="16"
       font-family="Sans"
       writing-mode="lr"
       id="text434">
      <tspan
         x="565"
         y="-166"
         style="-inkscape-font-specification:'Sans, Normal';text-align:start;line-height:125%"
         id="tspan436">V</tspan>
    </text>
    <path
       d="M36 198l1-187h-1l-1 186 1 1zm-4-2l3 7 3-6-6-1zm8-184l-3-6-3 6h6z"
       fill="#5b9bd5"
       id="path438" />
    <text
       y="-106"
       x="16"
       style="-inkscape-font-specification:'Sans, Normal';text-align:start;line-height:125%"
       transform="scale(1 -1)"
       font-size="16"
       font-family="Sans"
       writing-mode="lr"
       fill="#5b9bd5"
       id="text440">
      <tspan
         id="tspan442">N</tspan>
    </text>
    <path
       d="M466 224l215-2v-1l-215 2v1zm1-4l-6 4 6 2v-6zm213 5l6-3-6-3v6z"
       fill="#5b9bd5"
       id="path444" />
    <text
       y="-232"
       x="565"
       transform="scale(1 -1)"
       style="-inkscape-font-specification:'Sans, Normal';text-align:start;line-height:125%"
       font-size="16"
       font-family="Sans"
       writing-mode="lr"
       fill="#5b9bd5"
       id="text446">
      <tspan
         x="565"
         y="-232"
         style="-inkscape-font-specification:'Sans, Normal';text-align:start;line-height:125%"
         id="tspan448">M</tspan>
    </text>
    <path
       d="M62 222h250v-1H62v1zm1-3l-6 3 6 3v-6zm248 5l6-3-6-3v6z"
       fill="#5b9bd5"
       id="path450" />
    <text
       y="-232"
       x="394"
       transform="scale(1 -1)"
       style="-inkscape-font-specification:'Sans, Normal';text-align:start;line-height:125%"
       font-size="16"
       font-family="Sans"
       writing-mode="lr"
       fill="#5b9bd5"
       id="text452">
      <tspan
         x="394"
         y="-232"
         style="-inkscape-font-specification:'Sans, Normal';text-align:start;line-height:125%"
         id="tspan454">K</tspan>
    </text>
    <path
       d="M373 223h47v-1h-47v1zm1-3l-6 3 6 3v-6zm45 5l6-3-6-3v6zm282-26v-48h1v48h-1zm3-1l-3 6-3-6h6zm-6-46l3-6 3 6h-6z"
       fill="#5b9bd5"
       id="path456" />
    <text
       y="-169"
       x="712"
       transform="scale(1 -1)"
       style="-inkscape-font-specification:'Sans, Normal';text-align:start;line-height:125%"
       font-size="16"
       font-family="Sans"
       writing-mode="lr"
       fill="#5b9bd5"
       id="text458">
      <tspan
         x="712"
         y="-169"
         style="-inkscape-font-specification:'Sans, Normal';text-align:start;line-height:125%"
         id="tspan460">K</tspan>
    </text>
    <text
       y="-168"
       x="437"
       transform="scale(1 -1)"
       style="-inkscape-font-specification:'Sans, Normal';text-align:start;line-height:125%"
       font-size="16"
       font-family="Sans"
       writing-mode="lr"
       id="text462">
      <tspan
         x="437"
         y="-168"
         style="-inkscape-font-specification:'Sans, Normal';text-align:start;line-height:125%"
         id="tspan464">x</tspan>
    </text>
    <text
       y="-99"
       x="470"
       transform="scale(1 -1)"
       style="-inkscape-font-specification:'Sans, Normal';text-align:start;line-height:125%"
       font-size="16"
       font-family="Sans"
       writing-mode="lr"
       fill="#5b9bd5"
       id="text466">
      <tspan
         x="470"
         y="-99"
         style="-inkscape-font-specification:'Sans, Normal';text-align:start;line-height:125%"
         id="tspan468">M</tspan>
    </text>
    <text
       y="-99"
       x="488"
       transform="scale(1 -1)"
       style="-inkscape-font-specification:'Sans, Normal';text-align:start;line-height:125%"
       font-size="16"
       font-family="Sans"
       writing-mode="lr"
       fill="#5b9bd5"
       id="text470">
      <tspan
         x="488"
         y="-99"
         style="-inkscape-font-specification:'Sans, Normal';text-align:start;line-height:125%"
         id="tspan472">≪</tspan>
    </text>
    <text
       y="-99"
       x="509"
       transform="scale(1 -1)"
       style="-inkscape-font-specification:'Sans, Normal';text-align:start;line-height:125%"
       font-size="16"
       font-family="Sans"
       writing-mode="lr"
       fill="#5b9bd5"
       id="text474">
      <tspan
         x="509"
         y="-99"
         style="-inkscape-font-specification:'Sans, Normal';text-align:start;line-height:125%"
         id="tspan476">K</tspan>
    </text>
    <text
       y="-69"
       x="471"
       transform="scale(1 -1)"
       style="-inkscape-font-specification:'Sans, Normal';text-align:start;line-height:125%"
       font-size="16"
       font-family="Sans"
       writing-mode="lr"
       fill="#5b9bd5"
       id="text478">
      <tspan
         x="471"
         y="-69"
         style="-inkscape-font-specification:'Sans, Normal';text-align:start;line-height:125%"
         id="tspan480">N</tspan>
    </text>
    <text
       y="-69"
       x="489"
       transform="scale(1 -1)"
       style="-inkscape-font-specification:'Sans, Normal';text-align:start;line-height:125%"
       font-size="16"
       font-family="Sans"
       writing-mode="lr"
       fill="#5b9bd5"
       id="text482">
      <tspan
         x="489"
         y="-69"
         style="-inkscape-font-specification:'Sans, Normal';text-align:start;line-height:125%"
         id="tspan484">≪</tspan>
    </text>
    <text
       y="-69"
       x="510"
       transform="scale(1 -1)"
       style="-inkscape-font-specification:'Sans, Normal';text-align:start;line-height:125%"
       font-size="16"
       font-family="Sans"
       writing-mode="lr"
       fill="#5b9bd5"
       id="text486">
      <tspan
         x="510"
         y="-69"
         style="-inkscape-font-specification:'Sans, Normal';text-align:start;line-height:125%"
         id="tspan488">K</tspan>
    </text>
    <text
       y="-38"
       x="472"
       transform="scale(1 -1)"
       style="-inkscape-font-specification:'Sans, Normal';text-align:start;line-height:125%"
       font-size="16"
       font-family="Sans"
       writing-mode="lr"
       fill="#5b9bd5"
       id="text490">
      <tspan
         x="472"
         y="-38"
         style="-inkscape-font-specification:'Sans, Normal';text-align:start;line-height:125%"
         id="tspan492">R</tspan>
    </text>
    <text
       y="-38"
       x="488"
       transform="scale(1 -1)"
       style="-inkscape-font-specification:'Sans, Normal';text-align:start;line-height:125%"
       font-size="16"
       font-family="Sans"
       writing-mode="lr"
       fill="#5b9bd5"
       id="text494">
      <tspan
         x="488.20862 493.20901 500.20923 504.20883 513.20886 521.20801 527.20734 536.20734 541.2077 548.20795 557.20795 565.20715 571.20654 578.20673"
         y="-38"
         id="tspan496">is very sparse</tspan>
    </text>
    <text
       id="text3853"
       writing-mode="lr"
       font-size="16"
       transform="scale(1,-1)"
       style="font-size:16px;line-height:125%;font-family:Sans;-inkscape-font-specification:'Sans, Normal';text-align:start;writing-mode:lr;fill:#5b9bd5;font-weight:normal;font-style:normal;font-stretch:normal;font-variant:normal;text-anchor:start;"
       x="187.88782"
       y="-228.63905"
       sodipodi:linespacing="125%">
      <tspan
         sodipodi:role="line"
         id="tspan3857">M</tspan>
    </text>
  </g>
</svg>
